# xmcd
#
# Track frame offsets:
#	150
#	14650
#	28382
#	44247
#	61888
#	77074
#	92982
#	106662
#	120298
#	135240
#	151680
#	168084
#
# Disc length: 2445 seconds
# Revision: 0
# Processed by: cddbd v1.5.2PL0 Copyright (c) Steve Scherf et al.
# Submitted via: dBpowerAMP V12.0
#
DISCID=8f098b0c
DTITLE=Greg Bain - Country Skies
DYEAR=2008
DGENRE=Country
TTITLE0=Every Family Needs a Farmer
TTITLE1=The All Girl Droving Crew
TTITLE2=The Liverpool Plains
TTITLE3=What About Him
TTITLE4=A Country Sky at Night
TTITLE5=The Gnarlrd Gidgee
TTITLE6=Purple Roses
TTITLE7=I'm in Love With The Country
TTITLE8=What's Happened to The Handsshake
TTITLE9=Gamooweal
TTITLE10=A Special Bond
TTITLE11=Can I Sing Trumby
EXTD=
EXTT0=
EXTT1=
EXTT2=
EXTT3=
EXTT4=
EXTT5=
EXTT6=
EXTT7=
EXTT8=
EXTT9=
EXTT10=
EXTT11=
PLAYORDER=
